# xmcd CD database file
#
# Track frame offsets:
#	150
#	19272
#	35980
#	49645
#	73067
#	89067
#	114475
#	135012
#	151655
#	168347
#	184262
#	208984
#	228807
#
# Disc length: 3235 seconds
#
# Revision: 0
# Processed by: cddbd v1.4PL0 Copyright (c) Steve Scherf et al.
# Submitted via: CDex 1.50beta10
#
DISCID=ae0ca10d
DTITLE=The Volker Strifler Band - The Volker Strifler Band
DYEAR=2002
DGENRE=Blues
TTITLE0=Doggin'it
TTITLE1=Never Like This Before
TTITLE2=Struck By Lightning
TTITLE3=In Your Arms
TTITLE4=All Mighty Dollar
TTITLE5=Love
TTITLE6=I Smell Trouble
TTITLE7=JPB
TTITLE8=Movin' On
TTITLE9=Heard It On The News
TTITLE10=Never Been To Spain
TTITLE11=Hell And Purgatory
TTITLE12=True Blue Thing
EXTD=YEAR: 2002
EXTT0=
EXTT1=
EXTT2=
EXTT3=
EXTT4=
EXTT5=
EXTT6=
EXTT7=
EXTT8=
EXTT9=
EXTT10=
EXTT11=
EXTT12=
PLAYORDER=
